mtllib source/pyramid .mtl
o phyramid_
usemtl Material.001
v -1 -0.04054445028305054 1.0628595352172852
v -1 -0.04054445028305054 1.0628595352172852
v -1 -0.04054445028305054 1.0628595352172852
v 0 1.9594555497169495 0.06285953521728516
v 0 1.9594555497169495 0.06285953521728516
v 0 1.9594555497169495 0.06285953521728516
v 0 1.9594555497169495 0.06285953521728516
v -1 -0.04054445028305054 -0.9371404647827148
v -1 -0.04054445028305054 -0.9371404647827148
v -1 -0.04054445028305054 -0.9371404647827148
v 1 -0.04054445028305054 1.0628595352172852
v 1 -0.04054445028305054 1.0628595352172852
v 1 -0.04054445028305054 1.0628595352172852
v 1 -0.04054445028305054 -0.9371404647827148
v 1 -0.04054445028305054 -0.9371404647827148
v 1 -0.04054445028305054 -0.9371404647827148
vt 0.46067145466804504 0.8404001593589783
vt 0.6468915939331055 -0.0018379688262939453
vt 0.27861323952674866 0.44566863775253296
vt 0.6374703645706177 0.4429130554199219
vt 0.821060299873352 0.8387375473976135
vt 0.4580306112766266 0.8419806361198425
vt 0.2756560742855072 0.44468462467193604
vt 0.8158738613128662 0.8396826386451721
vt 1.0020947456359863 -0.0018379688262939453
vt 0.9958009719848633 0.44034135341644287
vt 0.6468915939331055 0.35336512327194214
vt 0.6338125467300415 0.44404280185699463
vt 0.45323246717453003 0.8418249487876892
vt 1.0020947456359863 0.35336512327194214
vt 0.6406069993972778 0.44289612770080566
vt 0.09802938997745514 0.8418024182319641
vn -0.8944271909999159 0.4472135954999579 0
vn 0 -1 0
vn 0 0.4472135954999579 0.8944271909999159
vn -0.8944271909999159 0.4472135954999579 0
vn 0 0.4472135954999579 -0.8944271909999159
vn 0 0.4472135954999579 0.8944271909999159
vn 0.8944271909999159 0.4472135954999579 0
vn -0.8944271909999159 0.4472135954999579 0
vn 0 -1 0
vn 0 0.4472135954999579 -0.8944271909999159
vn 0 -1 0
vn 0 0.4472135954999579 0.8944271909999159
vn 0.8944271909999159 0.4472135954999579 0
vn 0 -1 0
vn 0 0.4472135954999579 -0.8944271909999159
vn 0.8944271909999159 0.4472135954999579 0
f 1/1/1 4/4/4 8/8/8
f 10/10/10 5/5/5 15/15/15
f 16/16/16 7/7/7 13/13/13
f 12/12/12 6/6/6 3/3/3
f 9/9/9 14/14/14 11/11/11
f 9/9/9 11/11/11 2/2/2
